<svg width="80" height="27" viewBox="0 0 80 27" fill="none" xmlns="http://www.w3.org/2000/svg">
<path d="M40.013 18.0249C39.891 18.1649 39.812 18.2488 39.7402 18.3374C35.9904 22.976 31.0107 25.5017 25.0881 26.3203C21.0225 26.8823 17.0071 26.6351 13.1401 25.1519C8.54084 23.3888 5.18831 20.2311 2.82407 16.0846C1.81424 14.3122 1.08439 12.3835 0.277963 10.5062C0.0769547 10.0351 0.00995191 9.48471 0.000380082 8.96931C-0.0163706 8.14374 0.522045 7.81724 1.3189 8.12975C1.61084 8.24402 1.88603 8.41193 2.14208 8.59384C4.72647 10.4152 8.79928 11.5276 12.4749 9.01595C14.138 7.88021 15.7556 6.6745 17.3565 5.45481C19.2589 4.00423 21.1589 2.55365 23.3317 1.4972C27.9262 -0.736973 32.3843 -0.471111 36.6485 2.29712C37.821 3.05739 38.8811 3.98324 40.0393 4.86711C40.3959 4.55694 40.8027 4.18846 41.2238 3.83865C43.2459 2.14786 45.4498 0.783569 48.1131 0.265839C51.2623 -0.347509 54.2583 0.128243 56.9982 1.70709C58.8958 2.80085 60.6714 4.10218 62.4613 5.36152C63.8181 6.31536 65.1103 7.35548 66.4408 8.34897C66.7399 8.57285 67.0749 8.75243 67.386 8.96232C71.0472 11.4344 74.9693 10.5225 77.7858 8.62649C78.14 8.38628 78.5372 8.17173 78.9464 8.05046C79.5255 7.88021 79.9419 8.17406 79.9873 8.76408C80.016 9.16288 80.0017 9.59432 79.8844 9.97212C78.3936 14.732 75.9935 18.9508 72.0188 22.1854C68.6543 24.921 64.7155 26.262 60.3747 26.5115C54.689 26.838 49.3982 25.6696 44.6721 22.4536C42.8917 21.2503 41.3674 19.7764 40.013 18.0249Z" fill="#EB1889"/>
</svg>
