<svg width="372" height="234" viewBox="0 0 372 234" fill="none" xmlns="http://www.w3.org/2000/svg">
<g filter="url(#filter0_d_4_272)">
<path d="M158.604 80.6804C158.604 125.106 125.735 133.55 82.5809 127.921C42.2071 141.993 16.0062 120.058 16.0062 80.6804C16.0062 41.3031 47.9278 9.38144 87.3052 9.38144C126.682 9.38144 158.604 41.3031 158.604 80.6804Z" fill="white"/>
<path d="M127.386 80.0818C127.386 100.753 115.449 97.567 92.0135 102.062C68.5423 105.072 61.0371 98.4037 61.0371 80.0818C61.0371 61.76 75.8899 46.9072 94.2117 46.9072C112.534 46.9072 127.386 61.76 127.386 80.0818Z" fill="black"/>
<path d="M128.052 71.5438C122.857 81.1816 118.092 76.6965 106.035 72.9028C94.3354 68.4077 92.5119 63.4124 97.1163 54.8698C101.721 46.3272 112.378 43.1347 120.921 47.739C129.464 52.3434 132.656 63.0012 128.052 71.5438Z" fill="white"/>
<circle cx="276.81" cy="75.0516" r="75.0516" fill="#F977BC"/>
<circle cx="277.748" cy="74.1134" r="64.732" fill="white"/>
<path d="M75.7241 131.101C56 149.155 36.1975 155.589 4 138.323C9.97701 171.42 26.3718 192.163 41.6552 205.722C89.4713 238.218 150.437 229.793 185.701 184.66C213.793 227.988 300.427 237.014 330.943 205.722C361.458 174.429 365.012 163.597 368 138.323C337.383 156.159 318.621 152.178 293.885 128.694C244.539 90.3489 221.66 92.9717 185.701 122.074C145.381 88.2178 121.045 93.8402 75.7241 131.101Z" fill="#EA1889"/>
</g>
<defs>
<filter id="filter0_d_4_272" x="0" y="0" width="372" height="233.348" filterUnits="userSpaceOnUse" color-interpolation-filters="sRGB">
<feFlood flood-opacity="0" result="BackgroundImageFix"/>
<feColorMatrix in="SourceAlpha" type="matrix" values="0 0 0 0 0 0 0 0 0 0 0 0 0 0 0 0 0 0 127 0" result="hardAlpha"/>
<feOffset dy="4"/>
<feGaussianBlur stdDeviation="2"/>
<feComposite in2="hardAlpha" operator="out"/>
<feColorMatrix type="matrix" values="0 0 0 0 0 0 0 0 0 0 0 0 0 0 0 0 0 0 0.25 0"/>
<feBlend mode="normal" in2="BackgroundImageFix" result="effect1_dropShadow_4_272"/>
<feBlend mode="normal" in="SourceGraphic" in2="effect1_dropShadow_4_272" result="shape"/>
</filter>
</defs>
</svg>
