<svg fill="#a50c61" xmlns="http://www.w3.org/2000/svg"  viewBox="0 0 50 50" width="50px" height="50px"><path d="M 17.4375 7.3203125 C 17.272981 7.3241502 17.106951 7.3426026 16.941406 7.375 C 14.830442 7.7886277 12.661572 8.5132291 10.462891 9.3945312 C 9.3308784 9.848534 8.3680393 10.634118 7.6953125 11.650391 C 2.6308193 19.300463 1.2046231 27.224894 2.0410156 35.166016 A 1.0001 1.0001 0 0 0 2.5019531 35.908203 C 5.6675599 37.904815 8.9343651 39.648102 12.392578 40.84375 C 13.698136 41.295386 15.153724 40.77198 15.910156 39.613281 L 17.560547 37.083984 C 18.271775 37.281631 19.001472 37.448548 19.740234 37.599609 C 21.425072 38.014654 23.176033 38.244141 24.976562 38.244141 C 26.827668 38.244141 28.627346 38.004377 30.355469 37.566406 C 31.033612 37.423075 31.703333 37.264893 32.359375 37.082031 L 34.085938 39.654297 C 34.84823 40.791176 36.287809 41.296602 37.578125 40.851562 C 41.044527 39.654902 44.319536 37.908837 47.492188 35.908203 A 1.0001 1.0001 0 0 0 47.953125 35.166016 C 48.789518 27.225862 47.364279 19.301435 42.300781 11.652344 A 1.0001 1.0001 0 0 0 42.298828 11.648438 L 42.294922 11.642578 L 42.294922 11.646484 C 41.621932 10.629792 40.657059 9.8453562 39.525391 9.3925781 C 37.327877 8.512353 35.161521 7.7886104 33.052734 7.375 C 31.727797 7.1154142 30.388768 7.7959343 29.771484 9 L 29.587891 9.359375 C 28.321115 9.2144536 26.953472 9.0967918 24.996094 9.1445312 C 23.040183 9.0969182 21.673146 9.2139815 20.40625 9.359375 L 20.222656 9 A 1.0001 1.0001 0 0 0 20.220703 9 C 19.680321 7.9470624 18.589131 7.2934484 17.4375 7.3203125 z M 17.654297 9.3261719 C 17.975412 9.3689854 18.265626 9.5715805 18.441406 9.9140625 L 18.917969 10.841797 A 1.0001 1.0001 0 0 0 19.945312 11.375 C 21.234898 11.197225 22.778201 11.087717 24.972656 11.142578 A 1.0001 1.0001 0 0 0 25.021484 11.142578 C 27.215642 11.087728 28.76015 11.198038 30.050781 11.375 A 1.0001 1.0001 0 0 0 31.076172 10.841797 L 31.552734 9.9140625 C 31.785451 9.4601282 32.226907 9.2514764 32.667969 9.3378906 C 34.597182 9.7162802 36.654764 10.396272 38.78125 11.248047 C 39.540497 11.551425 40.178435 12.069484 40.628906 12.75 A 1.0001 1.0001 0 0 0 40.630859 12.751953 L 40.634766 12.757812 C 45.34034 19.867332 46.67088 27.07165 45.980469 34.470703 C 43.031087 36.301573 40.036314 37.887129 36.925781 38.960938 C 36.488097 39.111897 36.031755 38.964138 35.748047 38.541016 L 34.181641 36.208984 C 34.769653 35.937736 35.348819 35.650224 35.910156 35.330078 A 1.0001 1.0001 0 1 0 34.919922 33.59375 C 33.185327 34.583037 31.308264 35.311357 29.333984 35.753906 C 27.93703 36.004716 26.488437 36.163396 24.966797 36.195312 C 23.503373 36.164522 22.099249 36.01699 20.744141 35.783203 C 18.724447 35.344049 16.806356 34.603914 15.035156 33.59375 A 1.0001 1.0001 0 0 0 14.558594 33.455078 A 1.0001 1.0001 0 0 0 14.042969 35.330078 C 14.59726 35.646206 15.169683 35.9288 15.75 36.197266 L 14.234375 38.519531 C 13.952807 38.950835 13.487317 39.105489 13.046875 38.953125 C 9.9443814 37.880391 6.9558455 36.299347 4.0136719 34.472656 C 3.3227192 27.071086 4.6550343 19.865857 9.3632812 12.753906 C 9.8145545 12.072179 10.449043 11.553997 11.207031 11.25 C 13.33435 10.397302 15.395136 9.7162629 17.326172 9.3378906 C 17.437082 9.3161854 17.547259 9.3119007 17.654297 9.3261719 z M 31.601562 19.912109 C 29.693562 19.912109 28.123047 21.954547 28.123047 24.435547 C 28.123047 26.916547 29.693563 28.957031 31.601562 28.957031 C 33.509563 28.957031 35.078125 26.916547 35.078125 24.435547 C 35.078125 21.954547 33.509562 19.912109 31.601562 19.912109 z M 18.607422 19.992188 C 16.681422 19.992188 15.097656 22.022281 15.097656 24.488281 C 15.097656 26.954281 16.681422 28.982422 18.607422 28.982422 C 20.533422 28.982422 22.119141 26.954281 22.119141 24.488281 C 22.119141 22.022281 20.533422 19.992187 18.607422 19.992188 z"/></svg>